<svg xmlns="http://www.w3.org/2000/svg" width="2560" height="5218" fill="none"
  xmlns:v="https://vecta.io/nano">
  <path fill-rule="evenodd" d="M2560 1499.92V187.487C2471.31 113.154 2374.47 50.369 2271.82 0h-1266.5C838.737 81.558 688.012 195.385 563.002 337.062 44.563 924.825 100.255 1825 687.527 2344.55L1966.26 3463.7c88.54 77.25 141.11 184.4 148.93 301.51 7.51 117.12-30.98 230.19-108.88 318.34-83.54 94.69-204.62 148.88-331.65 148.88-107.32 0-210.57-38.62-290.98-109.02L104.635 3003.96C71.033 2974.88 36.1 2947.47 0 2921.79v1303.16l736.336 644.46c244.671 212.12 558.804 335.46 885.754 347.92h110.45c301.82-11.8 592.22-119.61 827.46-302.79V2669.58L1347.39 1608.52c-88.55-77.24-141.11-184.39-148.93-301.82-7.51-117.12 30.97-230.18 108.88-318.021 83.54-94.69 204.62-149.2 331.65-149.2 107.32 0 210.57 38.624 290.98 109.019L2560 1499.92z" fill="#0f2133"/>
</svg>